<svg width="396" height="243" viewBox="0 0 396 243" fill="none" xmlns="http://www.w3.org/2000/svg">
<g opacity="0.5">
<path d="M578.817 294.432C570.813 278.454 561.932 262.894 552.648 247.577C543.365 232.261 533.607 217.188 523.3 202.464C502.759 172.98 480.246 144.749 455.356 118.537C449.143 111.957 442.747 105.587 436.204 99.2866C432.915 96.1537 429.626 93.0556 426.263 89.9923C422.901 86.9639 419.502 83.9354 416.066 80.9765C402.287 69.1411 387.777 58.0715 372.464 48.0462C368.626 45.5399 364.752 43.138 360.804 40.7709C356.857 38.4387 352.873 36.1412 348.853 33.983C344.796 31.8247 340.739 29.7013 336.573 27.7172C332.443 25.733 328.276 23.7836 324 21.9735C307.078 14.7678 289.352 9.09378 271.187 5.54315C266.655 4.6729 262.087 3.90708 257.481 3.2805C252.876 2.68873 248.271 2.13177 243.666 1.81848L241.948 1.67924L240.23 1.57481L236.758 1.36595C234.456 1.29633 232.117 1.15709 229.814 1.15709C225.172 1.05266 220.531 1.15709 215.926 1.29633C206.642 1.64443 197.395 2.34063 188.222 3.48936L184.786 3.94189C183.653 4.08113 182.484 4.28999 181.351 4.46404C179.048 4.77733 176.782 5.19505 174.516 5.57796C169.984 6.4134 165.452 7.35327 160.956 8.43239C156.461 9.54631 152.039 10.7298 147.616 12.0874C143.23 13.445 138.881 14.9419 134.568 16.6127C126.016 19.9545 117.683 23.8184 109.788 28.4134C101.894 32.9735 94.4013 38.1602 87.4205 43.9386C80.4762 49.7171 74.0071 56.0525 68.1959 62.8753C56.5003 76.5209 47.2169 91.9417 40.2361 108.233C33.1823 124.524 28.3213 141.65 25.1415 159.021C21.9618 176.426 20.3902 194.074 20.1344 211.758C20.0613 216.179 20.0978 220.6 20.2075 225.021C20.3171 229.441 20.4999 233.862 20.7557 238.283C21.0115 242.704 21.377 247.09 21.8156 251.511C22.2907 255.897 22.7659 260.318 23.4969 264.669L23.3141 264.704C22.51 260.353 21.8887 255.967 21.377 251.546C20.8653 247.16 20.4268 242.739 20.0978 238.318C19.7689 233.897 19.5131 229.476 19.3303 225.055C19.1476 220.634 19.0745 216.214 19.0745 211.758C19.111 194.04 20.4633 176.286 23.5334 158.777C26.6035 141.268 31.3914 124.002 38.3722 107.502C45.3895 91.0366 54.6729 75.3721 66.5512 61.5873C72.4721 54.695 78.9777 48.2551 86.0682 42.4418C93.1586 36.6285 100.761 31.407 108.765 26.8121C116.769 22.2172 125.212 18.3184 133.874 14.9767C138.223 13.3406 142.609 11.8438 147.068 10.4862C151.527 9.12859 156.022 7.94505 160.554 6.86593C178.682 2.61911 197.322 0.600126 215.926 0.112785C220.567 0.00835493 225.245 -0.061266 229.887 0.0779742C232.226 0.112784 234.529 0.252026 236.868 0.356456L240.34 0.565315L242.094 0.669745L243.849 0.808986C248.49 1.15709 253.096 1.74886 257.701 2.37544C262.306 3.03683 266.874 3.83746 271.443 4.74252C289.644 8.39758 307.407 14.1064 324.365 21.3817C332.845 25.002 341.141 29.0399 349.255 33.3912C353.312 35.5494 357.296 37.8121 361.28 40.1443C365.227 42.4766 369.138 44.8785 373.012 47.35C388.472 57.2361 403.128 68.2012 417.053 79.9322C420.562 82.8563 423.961 85.8499 427.36 88.8784C430.759 91.9069 434.085 95.005 437.41 98.1031C444.026 104.334 450.458 110.739 456.708 117.283C462.958 123.828 469.062 130.546 475.019 137.334C477.979 140.745 480.94 144.192 483.827 147.638C486.715 151.119 489.602 154.6 492.416 158.116C503.71 172.179 514.419 186.695 524.616 201.524C534.776 216.353 544.425 231.495 553.562 246.951C558.131 254.644 562.517 262.476 566.793 270.343C571.069 278.21 575.199 286.147 579 294.223L578.817 294.432Z" fill="#53B7B9"/>
</g>
<g opacity="0.5556">
<path d="M559.993 295.301C551.587 280.193 542.304 265.573 532.655 251.162C523.006 236.785 512.809 222.722 502.173 208.972C496.874 202.08 491.392 195.326 485.836 188.643C480.281 181.959 474.579 175.345 468.768 168.871C457.109 155.921 444.975 143.355 432.219 131.346L429.844 129.083L427.431 126.855C425.823 125.393 424.215 123.861 422.607 122.399L417.709 118.013L416.467 116.934L415.224 115.855L412.739 113.697C409.449 110.808 406.014 108.058 402.651 105.238L397.498 101.13L394.903 99.0766L392.272 97.0925C385.327 91.6969 378.127 86.6146 370.818 81.6368L365.299 77.9817C363.435 76.7634 361.571 75.6147 359.707 74.4311L356.892 72.6558C355.942 72.064 354.992 71.5071 354.042 70.9501L348.34 67.5735L342.529 64.3362C341.542 63.8141 340.592 63.2571 339.605 62.735L336.645 61.2033L333.684 59.6717C332.697 59.1495 331.71 58.6274 330.724 58.1748L324.73 55.2508L323.231 54.5198L321.696 53.8236L318.663 52.466C316.616 51.5609 314.642 50.621 312.559 49.7856L306.382 47.2097C304.336 46.3742 302.216 45.6084 300.132 44.8078L297.026 43.6242C295.966 43.2413 294.906 42.8932 293.883 42.5451L287.56 40.3869L281.164 38.4375C280.104 38.1242 279.044 37.7761 277.947 37.4977L274.731 36.6274C266.142 34.2255 257.37 32.3806 248.562 30.8489L241.947 29.8046C240.85 29.5958 239.717 29.4913 238.621 29.3521L235.295 28.9692C230.873 28.3774 226.377 28.0989 221.955 27.716C221.407 27.6464 220.822 27.6464 220.274 27.6116L218.592 27.542L215.23 27.4027L211.867 27.2635C211.319 27.2287 210.734 27.2287 210.186 27.2287H208.505L201.78 27.1939C199.55 27.2287 197.321 27.2983 195.055 27.3679C186.101 27.5768 177.183 28.3078 168.301 29.2129L161.65 30.0831L158.324 30.5008L155.034 31.0578C152.841 31.4407 150.612 31.754 148.419 32.1369L141.877 33.4597C133.178 35.3394 124.516 37.5325 116.11 40.3869L114.538 40.909C114.027 41.0831 113.478 41.2571 112.967 41.4312L109.86 42.5799C107.777 43.3457 105.694 44.0768 103.647 44.9818C101.6 45.8521 99.5534 46.6527 97.5066 47.5578L91.5127 50.3426C83.5816 54.2413 75.9429 58.6274 68.6697 63.5356C61.3966 68.4438 54.5254 73.909 48.1659 79.8267C41.7699 85.7444 35.8856 92.1494 30.5129 98.9374C25.1403 105.725 20.2793 112.861 15.93 120.276C11.5807 127.691 7.74312 135.384 4.38064 143.285C1.01816 151.187 -1.83263 159.263 -4.28139 167.444C-6.6936 175.659 -8.74033 183.944 -10.385 192.333C-12.0297 200.722 -13.2358 209.181 -14.113 217.674C-14.9536 226.168 -15.5018 234.697 -15.648 243.225C-15.7211 247.507 -15.7211 251.754 -15.5749 256.035C-15.4287 260.317 -15.246 264.564 -14.844 268.81L-15.0267 268.845C-15.977 260.352 -16.2693 251.788 -16.2693 243.225C-16.2328 234.662 -15.8673 226.133 -15.0998 217.605C-14.2957 209.076 -13.1993 200.583 -11.6277 192.159C-10.0926 183.735 -8.15555 175.345 -5.74334 167.095C-3.36767 158.846 -0.516882 150.7 2.80905 142.694C6.13498 134.722 9.97259 126.925 14.3219 119.406C22.9839 104.368 33.8754 90.4089 46.7771 78.3647C59.6788 66.3552 74.6272 56.3299 90.7086 48.5324L96.8122 45.7128C98.8589 44.8078 100.942 44.0071 103.025 43.1369C105.072 42.2318 107.192 41.5356 109.312 40.735L112.455 39.5863C112.967 39.3774 113.515 39.2034 114.063 39.0641L115.671 38.542C124.187 35.6875 132.922 33.4945 141.694 31.6496L148.309 30.3268C150.539 29.9439 152.732 29.5958 154.961 29.2477L158.287 28.7255L161.65 28.3078L168.338 27.4724C177.292 26.6369 186.247 25.9407 195.274 25.8015C204.265 25.4534 213.256 25.8015 222.247 26.3584C226.706 26.7762 231.202 27.0895 235.661 27.7508L238.987 28.1686C240.083 28.3078 241.216 28.447 242.312 28.6559L248.964 29.7698C257.772 31.4059 266.581 33.3205 275.17 35.792L278.386 36.697C279.482 36.9755 280.506 37.3584 281.602 37.6717L287.998 39.6907L294.321 41.8837C295.381 42.2666 296.441 42.6147 297.464 42.9976L300.571 44.1812C302.654 44.9818 304.738 45.7476 306.821 46.5831L312.998 49.159C315.081 49.9945 317.091 50.9691 319.101 51.8742L322.135 53.2666L323.67 53.9628L325.168 54.6938L331.162 57.6179C332.186 58.1052 333.136 58.6274 334.123 59.1147L337.083 60.6463L340.044 62.178C341.03 62.7001 341.981 63.2571 342.967 63.7793L348.779 67.0166C364.166 75.8583 378.968 85.6052 393.076 96.1874L395.744 98.1716L398.339 100.191L403.565 104.263C406.964 107.048 410.436 109.763 413.762 112.618L416.284 114.741L417.563 115.82L418.806 116.899L423.777 121.216C425.421 122.678 427.029 124.14 428.674 125.602L431.123 127.795L433.535 130.058C439.968 136.01 446.217 142.171 452.358 148.437C458.498 154.703 464.419 161.108 470.266 167.618C481.925 180.637 493.036 194.108 503.599 207.928C514.161 221.747 524.176 235.95 533.715 250.466C538.503 257.706 543.071 265.051 547.53 272.465C551.989 279.88 556.302 287.364 560.322 295.022L559.993 295.301Z" fill="#66B6A4"/>
</g>
<g opacity="0.6111">
<path d="M541.133 296.207C532.288 281.969 522.566 268.289 512.478 254.852C502.391 241.416 491.755 228.362 480.681 215.621C458.569 190.175 434.52 166.226 408.461 144.47C401.955 139.004 395.303 133.748 388.542 128.561L383.425 124.732L382.146 123.792L380.83 122.853L378.235 120.973C374.8 118.467 371.254 116.065 367.746 113.663C365.991 112.479 364.201 111.296 362.41 110.147L359.742 108.372L357.037 106.666C355.21 105.517 353.419 104.368 351.591 103.255L346.072 99.9476C344.245 98.8336 342.381 97.7893 340.517 96.745L337.739 95.1438C336.826 94.6216 335.875 94.0995 334.925 93.5773L329.26 90.5488L327.835 89.783L326.409 89.052L323.522 87.59C308.208 79.8273 292.236 73.2482 275.862 67.8527L269.686 65.9381C268.662 65.6248 267.639 65.2767 266.579 64.9983L263.472 64.128L260.366 63.2578C259.306 62.9793 258.282 62.666 257.223 62.4223L250.936 60.8907C248.853 60.3685 246.733 59.916 244.613 59.4983L241.434 58.8369C240.374 58.628 239.314 58.3844 238.254 58.2103C233.978 57.4793 229.738 56.6439 225.462 56.0869C216.909 54.7641 208.284 54.0679 199.622 53.5109L193.116 53.2673C192.02 53.2325 190.96 53.1628 189.863 53.1628H186.611L180.105 53.128L173.599 53.3021C169.25 53.3717 164.937 53.685 160.624 53.8939C158.468 53.9983 156.312 54.2072 154.155 54.3812L147.686 54.9382L141.254 55.704L138.037 56.0869C136.977 56.2261 135.918 56.4002 134.821 56.5394L128.425 57.4793C126.305 57.8274 124.185 58.2451 122.066 58.628L118.886 59.2198C117.826 59.4287 116.766 59.6723 115.706 59.8812L109.383 61.2736C105.217 62.3527 101.014 63.3274 96.8836 64.5805L93.7769 65.4856C93.2652 65.6248 92.7536 65.7641 92.2419 65.9381L90.7068 66.4255L84.5667 68.4445C80.5463 69.9413 76.4894 71.3685 72.5421 73.0394L69.5817 74.2577C69.07 74.4666 68.5949 74.6755 68.1198 74.9191L66.6578 75.5805L63.7339 76.9033C62.7471 77.3558 61.7603 77.7736 60.8466 78.2609L55.1084 81.1153C53.2445 82.1248 51.3805 83.1691 49.4799 84.1786C42.0606 88.3906 34.9336 93.0552 28.1721 98.1374C21.4106 103.22 14.978 108.754 8.98403 114.672C2.99005 120.59 -2.56535 126.925 -7.64562 133.539C-17.8792 146.802 -26.2489 161.352 -32.8642 176.564C-36.1536 184.188 -39.114 191.951 -41.5993 199.852C-42.1841 201.837 -42.842 203.786 -43.3902 205.805L-44.2308 208.799L-45.0349 211.792C-45.5831 213.776 -46.0217 215.795 -46.5334 217.814L-47.2278 220.843C-47.4471 221.852 -47.6664 222.862 -47.8857 223.871C-49.5669 231.947 -50.9192 240.128 -51.833 248.343C-52.3081 252.45 -52.6736 256.558 -52.8929 260.7C-53.1487 264.808 -53.2949 268.95 -53.2218 273.093H-53.4045C-53.6969 264.808 -53.2218 256.523 -52.4543 248.308C-51.6502 240.058 -50.4441 231.843 -48.836 223.732C-45.6197 207.476 -40.8684 191.428 -34.2896 176.077C-27.7108 160.726 -19.3777 146.001 -9.18066 132.53C1.01641 119.058 13.1871 106.91 26.8563 96.571C40.5621 86.2672 55.6932 77.7039 71.7381 71.1945C75.7219 69.4888 79.8153 68.0615 83.9088 66.5995L90.0855 64.5805L91.6206 64.0932C92.1322 63.9192 92.6805 63.7799 93.1921 63.6407L96.3353 62.7356C100.502 61.4825 104.742 60.5078 108.945 59.4635L115.304 58.1059C116.364 57.897 117.424 57.6533 118.484 57.4445L121.7 56.8875C123.856 56.5046 125.976 56.1217 128.133 55.7736L134.602 54.8337C135.662 54.6945 136.758 54.5204 137.818 54.3812L141.071 54.0331L147.54 53.3021L154.046 52.7799C156.202 52.6059 158.395 52.397 160.551 52.3274C164.901 52.1185 169.25 51.8401 173.599 51.8053L180.105 51.666L186.647 51.7356L189.9 51.7704C190.996 51.7704 192.056 51.8749 193.153 51.9097L199.658 52.223C208.32 52.8496 216.982 53.685 225.571 55.0774C242.749 57.6185 259.598 61.9698 276.045 67.2957C278.092 67.9919 280.139 68.7229 282.185 69.4191L285.255 70.4983L288.289 71.647L294.356 73.9444L300.35 76.416C301.337 76.8337 302.36 77.2166 303.347 77.6691L306.307 78.9571C308.281 79.8274 310.255 80.6628 312.228 81.5679C316.102 83.4128 320.05 85.1881 323.851 87.1723L326.738 88.5995L328.164 89.3305L329.589 90.0963L335.29 93.09C336.241 93.5773 337.191 94.0995 338.105 94.6216L340.919 96.1881C342.783 97.2324 344.684 98.2767 346.511 99.3558L352.066 102.593C353.894 103.707 355.721 104.821 357.549 105.935L360.29 107.606L362.994 109.346C364.785 110.495 366.613 111.644 368.404 112.827C371.949 115.229 375.531 117.561 379.003 120.068L381.634 121.913L382.95 122.818L384.229 123.758L389.419 127.517C391.137 128.77 392.818 130.093 394.536 131.381L397.094 133.33L399.616 135.315L404.623 139.283L409.594 143.321C422.751 154.147 435.324 165.599 447.349 177.574C453.343 183.561 459.264 189.653 465.038 195.849C470.776 202.045 476.405 208.381 481.924 214.786C492.925 227.596 503.414 240.824 513.356 254.365C518.326 261.153 523.187 268.01 527.865 274.973C532.544 281.935 537.112 288.966 541.352 296.207H541.133Z" fill="#79B490"/>
</g>
<g opacity="0.6667">
<path d="M522.309 297.112C512.953 283.779 502.719 271.039 492.12 258.577C481.521 246.115 470.41 234.105 458.861 222.409C453.122 216.561 447.202 210.852 441.208 205.248C435.214 199.643 429.147 194.109 422.897 188.713C421.362 187.355 419.754 186.033 418.219 184.71L415.879 182.726L413.467 180.707C411.896 179.384 410.287 178.061 408.716 176.773L403.891 172.909C397.422 167.792 390.917 162.745 384.228 157.871C370.888 148.125 357.073 138.935 342.746 130.545C339.2 128.422 335.545 126.403 331.927 124.349L326.445 121.39L323.704 119.928L320.926 118.501C319.062 117.561 317.235 116.621 315.371 115.682L309.742 112.966C307.878 112.061 305.978 111.191 304.077 110.321C302.176 109.485 300.276 108.58 298.375 107.78C294.538 106.144 290.7 104.473 286.79 102.976L283.866 101.827C282.879 101.444 281.929 101.061 280.942 100.713L275.057 98.555L273.595 98.0329L272.097 97.5455L269.137 96.536L266.176 95.5265L264.678 95.0392L263.179 94.5867L257.185 92.7417L255.687 92.2892L254.188 91.8715L251.155 91.036L248.121 90.2006L246.623 89.7829L245.087 89.4L238.984 87.8683L237.449 87.4854L235.914 87.1373L232.844 86.4759L229.774 85.8145L228.239 85.4664C227.727 85.362 227.215 85.2576 226.704 85.188C222.574 84.4221 218.444 83.5867 214.314 82.9949L211.207 82.5076C210.184 82.3335 209.124 82.1595 208.1 82.055L201.85 81.2544C200.791 81.1152 199.767 80.9759 198.707 80.8715L195.564 80.5582C193.481 80.3493 191.397 80.1405 189.278 79.9664L182.991 79.5487L179.848 79.3399L176.705 79.2354L170.419 79.0266C168.335 78.9918 166.215 78.9918 164.132 78.9918C159.929 78.9221 155.726 79.0962 151.523 79.1658C150.463 79.2006 149.44 79.2006 148.38 79.2354L145.237 79.4095L138.95 79.7228C137.89 79.7576 136.867 79.862 135.807 79.9316L132.664 80.1753L129.521 80.419C128.461 80.4886 127.437 80.5582 126.377 80.6975L120.128 81.3588C119.068 81.4633 118.044 81.5677 116.984 81.7069L113.878 82.1247L107.482 82.8905L101.268 83.9L98.1619 84.4221C97.1385 84.5962 96.1151 84.805 95.0918 85.0139L88.915 86.1974L82.7749 87.555L79.7048 88.2512L76.6712 89.0171C68.5574 91.0012 60.5533 93.5075 52.6953 96.2575C50.7217 96.9886 48.7846 97.6499 46.811 98.4158L40.9997 100.713C40.5246 100.922 40.0129 101.096 39.5378 101.305L38.1124 101.932L35.2616 103.185C34.3113 103.602 33.3611 104.02 32.4108 104.438L29.5965 105.761C22.1041 109.311 14.7578 113.245 7.77701 117.596C0.759659 121.947 -6.00184 126.682 -12.471 131.799C-18.9035 136.916 -25.0071 142.381 -30.7818 148.194C-42.2947 159.821 -52.309 172.77 -60.6786 186.624C-61.7386 188.33 -62.7254 190.105 -63.7487 191.846C-64.2604 192.716 -64.7355 193.621 -65.2107 194.492L-66.6726 197.137C-67.5863 198.947 -68.5366 200.723 -69.4503 202.533C-70.3275 204.343 -71.2412 206.153 -72.0818 207.998L-73.361 210.748L-74.5671 213.533C-75.4078 215.378 -76.1387 217.257 -76.9063 219.102C-78.3682 222.862 -79.8301 226.621 -81.1094 230.415C-83.7043 238.039 -85.9338 245.767 -87.7247 253.599C-88.6384 257.498 -89.4059 261.431 -90.0638 265.4C-90.7217 269.368 -91.3064 273.336 -91.5988 277.339H-91.7816C-91.5623 273.336 -91.0506 269.333 -90.4658 265.365C-89.881 261.396 -89.1501 257.428 -88.3094 253.495C-86.6282 245.627 -84.5449 237.83 -82.0231 230.172C-80.7804 226.343 -79.3916 222.548 -77.9296 218.754C-77.1621 216.874 -76.4677 214.995 -75.6636 213.115L-74.494 210.33L-73.2514 207.545C-72.4473 205.7 -71.5336 203.855 -70.693 202.045C-69.8158 200.2 -68.8655 198.425 -67.9518 196.58C-67.0016 194.805 -66.0513 192.995 -65.0645 191.219C-64.0411 189.444 -63.0909 187.669 -61.9944 185.928C-53.6613 171.935 -43.6835 158.776 -32.1341 146.976C-20.6213 135.175 -7.50034 124.767 6.644 115.96C13.7344 111.539 21.1173 107.606 28.6828 104.02C36.285 100.47 44.0333 97.1974 52.0009 94.4822C59.9319 91.7322 68.0092 89.2607 76.1961 87.2766L79.2662 86.5107L82.3363 85.8145L88.513 84.4569L94.7263 83.2734C95.7496 83.0645 96.8096 82.8557 97.8329 82.6816L100.976 82.1943L107.189 81.15L113.476 80.3494L116.619 79.9316C117.679 79.7924 118.702 79.7228 119.762 79.6183L126.048 78.9918C127.108 78.8873 128.168 78.8177 129.192 78.7481L132.335 78.5392L135.478 78.3304C136.538 78.2607 137.598 78.1563 138.621 78.1215L144.944 77.843L148.087 77.7038C149.147 77.669 150.207 77.669 151.267 77.6342C155.47 77.5645 159.71 77.4253 163.913 77.5297C166.033 77.5645 168.153 77.5645 170.236 77.6342L176.559 77.9127L179.702 78.0519L182.845 78.2956L189.168 78.7829C191.251 78.9918 193.371 79.2354 195.454 79.4443L198.598 79.7924C199.658 79.8968 200.681 80.0709 201.741 80.2101L207.991 81.0804C209.05 81.2196 210.074 81.3937 211.097 81.5677L214.204 82.0899C218.37 82.7164 222.5 83.5867 226.63 84.4221C234.854 86.1974 243.041 88.112 251.118 90.4443C267.309 94.9696 283.062 100.748 298.449 107.327C306.124 110.669 313.726 114.115 321.145 117.909L323.96 119.302L326.737 120.764L332.293 123.653C335.947 125.672 339.639 127.621 343.221 129.745C350.457 133.852 357.548 138.238 364.529 142.694L369.755 146.106L374.908 149.587C375.749 150.178 376.626 150.735 377.467 151.327L380.025 153.102C381.706 154.286 383.424 155.469 385.105 156.688L390.149 160.343C391.83 161.561 393.475 162.814 395.12 164.068L397.605 165.947L400.054 167.862C401.699 169.15 403.343 170.403 404.951 171.691C411.42 176.843 417.78 182.134 423.993 187.564C436.456 198.39 448.408 209.738 459.884 221.504C471.36 233.27 482.325 245.488 492.814 258.055C498.077 264.32 503.158 270.726 508.092 277.235C513.026 283.744 517.85 290.324 522.346 297.112H522.309Z" fill="#8DB27B"/>
</g>
<g opacity="0.7222">
<path d="M503.452 298.019C493.474 285.627 482.655 273.861 471.508 262.443C460.324 251.026 448.665 240.06 436.641 229.478C412.518 208.314 386.752 188.925 359.377 171.728C355.978 169.57 352.506 167.482 349.07 165.393C345.561 163.339 342.126 161.251 338.581 159.301C331.563 155.298 324.4 151.504 317.163 147.849L311.717 145.133L306.235 142.523L303.494 141.235L300.716 139.982L295.161 137.475L289.532 135.073C288.582 134.69 287.668 134.273 286.718 133.89L283.904 132.741C282.003 131.975 280.139 131.209 278.239 130.478L272.537 128.32C271.587 127.972 270.637 127.589 269.686 127.276L266.799 126.266C264.862 125.605 262.961 124.909 261.024 124.247C257.15 122.994 253.276 121.671 249.365 120.558C247.392 119.966 245.455 119.374 243.481 118.817L237.56 117.216C236.573 116.937 235.586 116.659 234.6 116.415L231.639 115.684L225.682 114.222L219.688 112.899L216.691 112.238L213.694 111.646L207.663 110.497C205.653 110.149 203.643 109.836 201.596 109.488C197.576 108.757 193.519 108.27 189.462 107.678C188.439 107.539 187.415 107.399 186.428 107.295L183.395 106.947L180.361 106.599L178.826 106.425C178.315 106.355 177.803 106.32 177.291 106.285L171.188 105.763C170.164 105.694 169.141 105.554 168.118 105.52L165.047 105.346L158.907 104.997L152.767 104.823C148.674 104.649 144.58 104.719 140.487 104.684H138.952L137.417 104.719L134.347 104.789L128.206 104.928C126.16 104.997 124.113 105.102 122.066 105.206L118.996 105.346C117.973 105.38 116.949 105.415 115.926 105.52L109.786 105.937L106.716 106.146L103.646 106.425L97.5421 106.982C96.5187 107.051 95.4954 107.191 94.5086 107.33L91.475 107.678L88.4415 108.026C87.4181 108.13 86.3948 108.27 85.408 108.409L79.3409 109.279C77.3307 109.558 75.3205 109.906 73.3103 110.254C71.3002 110.602 69.29 110.915 67.2798 111.298L61.2858 112.482C60.299 112.69 59.2757 112.865 58.2888 113.073L55.2919 113.735C47.3242 115.475 39.4663 117.599 31.6449 119.966C16.1117 124.735 0.90744 130.687 -13.4562 138.067C-42.2931 152.687 -67.9137 173.051 -87.9424 197.697C-92.9495 203.858 -97.5912 210.263 -101.904 216.877C-106.217 223.491 -110.127 230.348 -113.709 237.345C-117.254 244.377 -120.471 251.548 -123.212 258.893C-124.601 262.583 -125.843 266.272 -127.013 270.032C-128.146 273.791 -129.206 277.551 -129.937 281.38L-130.12 281.345C-129.425 277.481 -128.475 273.687 -127.415 269.893C-126.355 266.133 -125.112 262.374 -123.797 258.684C-122.481 254.994 -121.055 251.304 -119.52 247.684C-117.985 244.064 -116.341 240.478 -114.586 236.928C-107.606 222.76 -99.0897 209.254 -89.1119 196.757C-79.1341 184.295 -67.7309 172.842 -55.1947 162.678C-48.9084 157.595 -42.3662 152.861 -35.5316 148.44C-28.7335 144.02 -21.6431 139.982 -14.4064 136.257L-11.7018 134.864C-10.7881 134.412 -9.8744 133.994 -8.96069 133.542L-6.183 132.219C-5.26929 131.766 -4.35557 131.349 -3.4053 130.931L2.18665 128.459L7.8517 126.127C9.71567 125.327 11.6527 124.63 13.5898 123.934L16.4772 122.855C17.4274 122.472 18.4143 122.194 19.3645 121.846C21.3016 121.184 23.2387 120.523 25.1758 119.861L31.0601 118.051C38.9181 115.719 46.8491 113.596 54.8898 111.89L57.8868 111.228C58.8736 111.02 59.897 110.846 60.9203 110.637L66.9509 109.453C68.9611 109.07 71.0078 108.757 73.018 108.444C75.0281 108.096 77.0749 107.747 79.1216 107.504C95.3857 105.137 111.796 103.814 128.206 103.361C144.617 102.909 161.1 103.535 177.438 105.206C193.775 106.877 209.929 109.801 225.901 113.491L231.858 114.988L234.819 115.719C235.806 115.963 236.793 116.241 237.779 116.52L243.7 118.156C245.674 118.713 247.611 119.339 249.585 119.896L252.508 120.766C253.495 121.045 254.446 121.393 255.432 121.706L261.28 123.586C263.217 124.213 265.154 124.909 267.055 125.57L269.942 126.58C270.892 126.893 271.843 127.276 272.829 127.624C303.53 138.763 332.806 153.279 360.4 170.266C363.872 172.39 367.271 174.583 370.67 176.776C374.033 179.004 377.432 181.231 380.758 183.529C384.12 185.792 387.373 188.159 390.699 190.491C393.952 192.858 397.241 195.225 400.457 197.662C406.89 202.5 413.249 207.478 419.463 212.595C425.676 217.712 431.78 222.934 437.81 228.26C449.835 238.912 461.348 250.086 472.422 261.643C475.199 264.532 477.941 267.456 480.609 270.38C483.277 273.339 485.945 276.298 488.576 279.326C493.803 285.348 498.956 291.44 503.744 297.776L503.452 298.019Z" fill="#A0B067"/>
</g>
<g opacity="0.7778">
<path d="M484.592 298.921C473.92 287.503 462.407 276.851 450.638 266.478C438.833 256.139 426.553 246.323 413.943 236.889C401.334 227.456 388.359 218.51 375.019 210.051C361.679 201.592 348.01 193.621 334.011 186.206C306.052 171.342 276.667 158.706 246.112 149.342C244.211 148.75 242.311 148.159 240.374 147.602L234.599 145.966C233.649 145.687 232.662 145.409 231.712 145.165L228.824 144.399L223.013 142.902L217.165 141.51L214.242 140.814L211.318 140.187L205.433 138.934L199.549 137.785C183.833 134.757 167.898 132.773 151.926 131.589C147.942 131.241 143.922 131.102 139.938 130.893C137.928 130.788 135.918 130.754 133.944 130.684L127.95 130.545H121.956C119.946 130.545 117.936 130.51 115.962 130.58L109.968 130.684L106.971 130.754L103.974 130.858C87.9659 131.45 71.9941 132.773 56.132 134.896L50.1746 135.801L47.2141 136.254C46.2273 136.393 45.2405 136.602 44.2537 136.741L38.3328 137.75C36.3592 138.099 34.4221 138.516 32.4485 138.899L29.5246 139.456C28.5378 139.63 27.5875 139.874 26.6007 140.083L20.7529 141.371C18.8158 141.823 16.8787 142.311 14.9417 142.763L12.0178 143.459L9.13042 144.225C-6.29312 148.298 -21.4243 153.38 -36.0072 159.576L-38.7483 160.76L-40.1006 161.352L-41.4529 161.978L-46.8621 164.45L-52.1982 167.06C-53.112 167.478 -53.9526 167.966 -54.8297 168.383L-57.4613 169.741C-64.4786 173.396 -71.3132 177.364 -77.9651 181.576C-91.2688 190.035 -103.768 199.643 -115.172 210.295C-120.873 215.621 -126.355 221.225 -131.509 227.038C-136.626 232.886 -141.523 238.943 -146.019 245.244C-147.152 246.81 -148.248 248.412 -149.345 250.013C-150.405 251.614 -151.501 253.215 -152.524 254.851C-154.608 258.124 -156.618 261.431 -158.482 264.772C-160.382 268.149 -162.137 271.56 -163.818 275.041C-165.463 278.522 -167.034 282.038 -168.313 285.658L-168.496 285.589C-167.911 283.744 -167.217 281.968 -166.486 280.158C-165.755 278.383 -164.987 276.608 -164.22 274.832C-162.612 271.317 -160.894 267.87 -159.067 264.459C-157.239 261.048 -155.302 257.706 -153.255 254.399C-152.232 252.728 -151.209 251.127 -150.149 249.491C-149.052 247.889 -147.992 246.253 -146.859 244.652C-137.978 231.877 -127.708 219.972 -116.305 209.181C-104.901 198.355 -92.4018 188.573 -79.0615 179.975C-72.4097 175.659 -65.502 171.655 -58.4846 167.966L-55.8166 166.573C-54.9394 166.121 -54.0622 165.633 -53.1485 165.216L-47.7759 162.57L-42.3301 160.064L-40.9778 159.437L-39.589 158.845L-36.8478 157.662L-34.1067 156.478L-31.329 155.364L-28.5513 154.25L-27.1624 153.693L-25.7736 153.171L-20.1451 151.083L-14.48 149.133C-6.8779 146.592 0.760773 144.225 8.54564 142.241L11.4695 141.475L14.3934 140.779C16.3305 140.326 18.3041 139.839 20.2412 139.386L26.1255 138.133C27.1124 137.924 28.0992 137.681 29.086 137.507L32.0464 136.95C34.02 136.567 35.9937 136.184 37.9673 135.836L43.9248 134.826C44.9116 134.652 45.8984 134.478 46.8852 134.339L49.8822 133.921L55.8396 133.051C71.7748 130.962 87.8197 129.744 103.901 129.292L106.898 129.187L109.895 129.152L115.962 129.187C117.972 129.152 119.983 129.187 121.993 129.222L128.023 129.292L134.054 129.5C136.064 129.57 138.074 129.64 140.084 129.779C144.105 130.023 148.125 130.231 152.109 130.614L158.103 131.137L164.097 131.763L167.094 132.076C168.081 132.181 169.067 132.32 170.091 132.459L176.048 133.225C177.035 133.33 178.022 133.504 179.009 133.643L181.969 134.095L184.93 134.548C185.916 134.687 186.903 134.861 187.89 135.035C191.837 135.731 195.784 136.358 199.732 137.159L205.616 138.307L211.5 139.595L214.424 140.222L217.348 140.918L223.196 142.311C230.944 144.295 238.693 146.349 246.331 148.716C250.169 149.83 253.97 151.083 257.771 152.301C259.672 152.928 261.572 153.589 263.436 154.216C265.337 154.842 267.237 155.504 269.101 156.165L274.73 158.184L280.322 160.307L283.136 161.352L285.913 162.466L291.469 164.693L296.988 166.991C297.901 167.374 298.815 167.757 299.729 168.14L302.47 169.323C304.297 170.124 306.125 170.924 307.952 171.725L313.398 174.197C315.225 174.997 316.98 175.902 318.807 176.738C320.598 177.608 322.389 178.443 324.18 179.348L329.516 181.994L334.816 184.709C341.869 188.399 348.85 192.193 355.685 196.197C362.556 200.2 369.354 204.272 376.006 208.554C382.694 212.836 389.273 217.222 395.742 221.712C402.248 226.238 408.607 230.902 414.894 235.636C427.466 245.174 439.601 255.2 451.333 265.643C457.18 270.864 462.919 276.225 468.511 281.725C474.102 287.225 479.585 292.829 484.738 298.677L484.592 298.921Z" fill="#B3AF52"/>
</g>
<g opacity="0.8333">
<path d="M465.769 299.792C454.292 289.454 442.049 279.951 429.549 270.796C423.299 266.236 416.94 261.78 410.507 257.463C404.075 253.147 397.532 248.935 390.917 244.827C384.302 240.72 377.613 236.751 370.852 232.888C364.09 229.024 357.256 225.264 350.385 221.644C343.477 218.024 336.496 214.508 329.479 211.131C322.425 207.755 315.334 204.517 308.171 201.35C301.007 198.217 293.771 195.223 286.498 192.334L281.015 190.21L278.274 189.166L275.533 188.157C273.705 187.495 271.842 186.799 270.014 186.138L264.459 184.188C249.62 179.071 234.562 174.546 219.285 170.752C188.73 163.198 157.408 158.498 125.903 156.932L119.982 156.688L117.021 156.584L114.061 156.514L108.14 156.375C106.166 156.34 104.193 156.375 102.219 156.34C100.246 156.34 98.2719 156.305 96.2982 156.34L90.3774 156.445C86.4301 156.479 82.4828 156.654 78.5721 156.793L75.6117 156.897L72.6513 157.036L66.7669 157.35C64.7933 157.419 62.8197 157.628 60.8826 157.733L54.9983 158.15L49.1139 158.673C47.1403 158.847 45.2032 158.986 43.2296 159.229C39.3189 159.647 35.4082 160.03 31.4975 160.552L25.6497 161.283L19.8019 162.119L16.878 162.536L13.9541 163.024L8.14287 163.998C6.20578 164.347 4.26869 164.695 2.33162 165.078L-0.55571 165.6C-1.50598 165.774 -2.4928 165.983 -3.44307 166.191L-9.21774 167.375C-11.1548 167.793 -13.0554 168.245 -14.9559 168.663L-17.8432 169.324L-20.694 170.021L-26.3956 171.448C-30.1967 172.457 -33.9978 173.432 -37.7623 174.546C-41.5268 175.59 -45.2913 176.774 -49.0192 177.922C-52.7472 179.141 -56.4752 180.359 -60.1666 181.682C-74.9688 186.834 -89.3324 192.995 -103.257 200.027C-117.146 207.058 -130.523 215.065 -143.096 224.081C-149.382 228.606 -155.486 233.305 -161.406 238.283C-162.905 239.501 -164.33 240.789 -165.792 242.043C-167.218 243.331 -168.68 244.619 -170.068 245.906C-172.919 248.517 -175.66 251.198 -178.365 253.913C-183.738 259.378 -188.891 265.087 -193.679 271.039C-196.091 274.033 -198.394 277.061 -200.587 280.194C-201.683 281.761 -202.743 283.327 -203.803 284.929C-204.826 286.53 -205.85 288.131 -206.763 289.802L-206.946 289.732C-206.069 288.027 -205.082 286.391 -204.095 284.789C-203.108 283.153 -202.049 281.552 -200.989 279.986C-198.832 276.818 -196.603 273.72 -194.227 270.691C-189.549 264.634 -184.469 258.821 -179.133 253.286C-168.424 242.182 -156.655 232.017 -144.082 222.862C-131.51 213.707 -118.133 205.562 -104.208 198.391C-97.2635 194.805 -90.1365 191.464 -82.9364 188.365C-75.7363 185.233 -68.39 182.413 -60.9707 179.767C-57.2793 178.41 -53.5147 177.226 -49.7868 175.973C-46.0223 174.824 -42.2578 173.641 -38.4567 172.562C-34.6922 171.448 -30.8546 170.473 -27.0535 169.464L-21.3154 168.071L-18.428 167.375L-15.5407 166.748C-13.6036 166.331 -11.7031 165.878 -9.76598 165.46L-3.95473 164.277C-2.96793 164.103 -2.01767 163.894 -1.0674 163.72L1.85649 163.198C3.79356 162.85 5.73065 162.502 7.70428 162.154L13.5521 161.214L16.476 160.761L19.3999 160.343L25.2842 159.508L31.1685 158.777C35.0792 158.255 39.0265 157.907 42.9372 157.489C44.9108 157.28 46.8845 157.141 48.8581 156.967L54.779 156.479L60.6999 156.097C62.6735 155.992 64.6471 155.818 66.6207 155.748L72.5416 155.47L75.502 155.331L78.4625 155.261C94.2515 154.774 110.077 154.913 125.866 155.853C141.655 156.758 157.371 158.568 172.941 160.9C174.878 161.179 176.852 161.492 178.789 161.84L184.636 162.815L190.448 163.894L193.372 164.451C194.322 164.625 195.309 164.834 196.259 165.043L202.07 166.226C204.007 166.609 205.908 167.062 207.845 167.479C211.682 168.28 215.52 169.255 219.358 170.16C220.308 170.369 221.258 170.612 222.208 170.856L225.059 171.587C226.96 172.074 228.897 172.527 230.761 173.049L236.462 174.581C238.363 175.068 240.263 175.66 242.127 176.182C245.928 177.226 249.693 178.41 253.458 179.524C255.358 180.081 257.222 180.707 259.086 181.299C260.95 181.891 262.851 182.483 264.678 183.109L270.27 184.989C272.134 185.615 273.961 186.277 275.825 186.938L278.603 187.913L281.381 188.922L286.9 190.976C294.246 193.796 301.519 196.685 308.756 199.783C337.593 212.141 365.296 226.865 391.685 243.47C404.879 251.789 417.671 260.631 430.097 269.925C436.31 274.555 442.414 279.359 448.372 284.267C454.329 289.21 460.213 294.223 465.805 299.549L465.769 299.792Z" fill="#C6AD3E"/>
</g>
<g opacity="0.8889">
<path d="M446.947 300.693C434.557 291.608 421.509 283.427 408.242 275.56C394.975 267.728 381.379 260.383 367.563 253.456C360.656 250.01 353.675 246.668 346.658 243.431C339.64 240.193 332.55 237.06 325.423 234.067C318.259 231.073 311.096 228.149 303.859 225.364C296.622 222.614 289.349 219.899 282.003 217.358C267.347 212.241 252.508 207.576 237.487 203.469C222.502 199.326 207.297 195.776 191.984 192.782C176.67 189.823 161.21 187.491 145.713 185.75C143.776 185.542 141.839 185.333 139.902 185.124C137.965 184.915 136.028 184.706 134.091 184.532C130.216 184.219 126.306 183.836 122.432 183.592L116.584 183.209L110.736 182.896C106.825 182.652 102.951 182.548 99.0404 182.409C98.0535 182.374 97.1033 182.339 96.1165 182.304L93.1926 182.269L87.3448 182.165C85.4077 182.13 83.4341 182.165 81.497 182.165C79.5599 182.165 77.5863 182.13 75.6492 182.165L63.9536 182.443L58.1059 182.583L55.182 182.652L52.258 182.792L40.5625 183.383L34.7147 183.697L28.8669 184.184L17.2079 185.124C16.2211 185.193 15.2708 185.263 14.284 185.367L11.3601 185.681L5.54884 186.342L-0.26239 187.004C-2.19946 187.247 -4.13654 187.421 -6.07361 187.7L-17.6596 189.371L-20.5469 189.788C-21.4972 189.928 -22.484 190.067 -23.4342 190.241L-29.1724 191.25L-34.9105 192.26L-37.7979 192.782C-38.7481 192.956 -39.735 193.095 -40.6852 193.304L-52.1249 195.706L-54.9757 196.298C-55.4509 196.402 -55.926 196.507 -56.4012 196.611L-57.8265 196.959L-63.4916 198.317L-69.1566 199.674L-72.0074 200.371L-74.8217 201.136L-86.0787 204.234C-100.991 208.586 -115.683 213.598 -130.083 219.342C-144.483 225.086 -158.518 231.595 -172.041 239.01C-185.564 246.389 -198.649 254.57 -211.002 263.655C-217.142 268.25 -223.136 272.984 -228.874 278.032C-230.3 279.285 -231.762 280.538 -233.114 281.861L-235.197 283.81L-237.244 285.794C-239.949 288.475 -242.617 291.19 -245.065 294.079L-245.212 293.975C-242.836 291.016 -240.241 288.231 -237.573 285.481L-235.563 283.462L-233.516 281.478C-232.164 280.12 -230.738 278.867 -229.313 277.579C-223.648 272.427 -217.727 267.554 -211.623 262.889C-199.343 253.665 -186.368 245.241 -172.809 237.722C-159.286 230.203 -145.214 223.554 -130.814 217.671C-116.414 211.788 -101.648 206.741 -86.7 202.32L-75.4064 199.222L-72.5922 198.456L-69.7414 197.76L-64.0398 196.402C-56.4742 194.453 -48.799 193.026 -41.1238 191.424C-40.1735 191.216 -39.1867 191.076 -38.2364 190.902L-35.3491 190.415L-29.5744 189.405L-23.7997 188.396C-22.8494 188.222 -21.8626 188.083 -20.9124 187.943L-18.0251 187.526L-6.40256 185.89C-4.46548 185.576 -2.52838 185.437 -0.591309 185.193L5.25648 184.567L11.1043 183.94L14.0282 183.627C15.015 183.523 15.9652 183.453 16.952 183.383L28.6476 182.478L34.4954 182.061L40.3432 181.782L52.0753 181.26L54.9992 181.121L57.9231 181.086L63.8074 181.016L75.5396 180.877C77.5132 180.877 79.4503 180.912 81.4239 180.912C83.3975 180.947 85.3346 180.947 87.3082 180.981L93.156 181.155L96.0799 181.225C97.0667 181.26 98.017 181.295 99.0038 181.364C114.647 181.991 130.216 183.279 145.75 185.054L151.561 185.785L154.485 186.133L157.372 186.516L163.183 187.317C165.12 187.595 167.057 187.909 168.958 188.187C172.832 188.744 176.67 189.405 180.507 190.067C182.444 190.38 184.345 190.728 186.282 191.076C188.219 191.424 190.12 191.772 192.057 192.121C195.894 192.886 199.732 193.583 203.533 194.383L209.271 195.567L214.973 196.82C216.873 197.238 218.774 197.69 220.674 198.108L226.376 199.466C230.14 200.405 233.941 201.31 237.706 202.32C252.801 206.253 267.712 210.744 282.478 215.722C289.861 218.228 297.171 220.874 304.444 223.659C311.717 226.443 318.917 229.333 326.081 232.361C340.371 238.418 354.442 244.997 368.258 251.994C382.073 259.026 395.56 266.579 408.79 274.551C415.406 278.554 421.875 282.696 428.271 286.978C434.667 291.26 440.99 295.68 447.02 300.38L446.947 300.693Z" fill="#D9AB29"/>
</g>
<g opacity="0.9444">
<path d="M428.088 301.596C414.711 293.973 400.823 287.255 386.788 280.815C372.753 274.375 358.463 268.492 344.026 262.922C315.189 251.783 285.621 242.35 255.652 234.309C253.788 233.786 251.887 233.334 250.023 232.846L244.395 231.419L238.766 229.992C236.902 229.505 235.002 229.087 233.101 228.634L221.771 225.989L210.368 223.552C208.467 223.169 206.567 222.717 204.666 222.369L198.928 221.29C195.09 220.559 191.289 219.828 187.452 219.131L175.939 217.217L170.164 216.277L164.39 215.476L152.84 213.875C148.966 213.422 145.092 212.97 141.254 212.552L135.443 211.891L133.981 211.717L132.519 211.578L129.595 211.334L117.973 210.324L115.049 210.081L112.125 209.907L106.314 209.524C102.44 209.315 98.5288 209.036 94.6546 208.862L82.9957 208.479L77.1479 208.271L75.6859 208.236H74.224L71.3001 208.201C40.1606 207.853 8.9846 209.141 -21.9721 212.1L-24.8595 212.343C-25.8463 212.413 -26.7965 212.552 -27.7468 212.657L-33.558 213.318L-39.3693 213.979L-42.2566 214.328L-43.7186 214.502L-45.1805 214.71L-56.7299 216.312L-59.6172 216.729C-60.5675 216.869 -61.5543 216.973 -62.5046 217.147L-68.2427 218.087L-73.9809 219.027L-76.8682 219.514C-77.8185 219.653 -78.7687 219.828 -79.7555 220.002L-91.1953 222.16C-95.0329 222.821 -98.7974 223.691 -102.598 224.492C-106.4 225.328 -110.201 226.059 -113.965 226.998L-125.295 229.679L-136.552 232.603L-139.366 233.334C-140.317 233.578 -141.23 233.856 -142.144 234.134L-147.736 235.736L-153.328 237.337L-158.883 239.077C-173.686 243.638 -188.269 248.79 -202.596 254.638C-216.886 260.451 -230.957 266.891 -244.553 274.062C-251.315 277.717 -258.04 281.476 -264.582 285.479C-266.227 286.489 -267.835 287.498 -269.443 288.543L-271.855 290.109L-274.231 291.71C-277.411 293.869 -280.554 296.062 -283.514 298.429L-283.661 298.289C-280.7 295.853 -277.63 293.59 -274.487 291.362L-272.111 289.726L-269.735 288.125C-268.164 287.046 -266.519 286.001 -264.911 284.957C-258.442 280.815 -251.79 276.916 -245.029 273.191C-231.469 265.846 -217.507 259.163 -203.18 253.21C-188.89 247.258 -174.27 242.002 -159.468 237.302L-153.913 235.527L-148.321 233.891L-142.729 232.255C-141.779 231.976 -140.865 231.698 -139.915 231.454L-137.1 230.723L-125.807 227.729L-114.44 225.014L-111.589 224.318C-110.639 224.074 -109.689 223.9 -108.739 223.691L-103.037 222.473C-99.236 221.672 -95.4349 220.802 -91.5973 220.141L-80.121 217.983C-79.1708 217.809 -78.2205 217.635 -77.2337 217.495L-74.3463 217.043L-68.5717 216.103L-62.797 215.163C-61.8467 214.989 -60.8599 214.884 -59.9096 214.745L-57.0223 214.362L-45.4363 212.796L-43.9744 212.587L-42.5125 212.413L-39.5885 212.1L-33.7773 211.473L-27.9661 210.847C-26.9793 210.742 -26.029 210.638 -25.0422 210.533L-22.1183 210.29L-10.4593 209.28C-6.58513 208.897 -2.67442 208.723 1.19975 208.479L12.8953 207.783C16.806 207.609 20.6802 207.505 24.5909 207.366L30.4387 207.157C32.3757 207.087 34.3494 207.017 36.2865 207.017L47.982 206.913C55.7669 206.774 63.5883 207.017 71.3732 207.122C102.549 207.818 133.652 210.603 164.499 214.885L170.274 215.685L176.049 216.59L187.598 218.296C191.436 218.957 195.273 219.653 199.111 220.315L204.849 221.324C206.749 221.672 208.65 222.09 210.587 222.473L222.027 224.771L233.43 227.312C235.33 227.729 237.231 228.147 239.132 228.6L244.797 229.992L250.462 231.384C252.362 231.837 254.226 232.29 256.127 232.812L267.384 235.805C269.284 236.293 271.112 236.85 273.012 237.372L278.604 239.008C280.468 239.565 282.332 240.087 284.196 240.644L289.751 242.35L295.307 244.09C297.171 244.647 298.998 245.274 300.862 245.865C304.554 247.084 308.245 248.267 311.9 249.521L322.901 253.35C326.556 254.672 330.174 256.03 333.829 257.353C335.657 258.014 337.447 258.745 339.275 259.441L344.684 261.53L347.389 262.574L350.093 263.653L355.466 265.846C356.343 266.229 357.257 266.577 358.134 266.96L360.802 268.109L366.138 270.372C367.929 271.103 369.683 271.903 371.438 272.704L376.737 275.036L382 277.438C383.755 278.239 385.509 279.039 387.263 279.875C394.244 283.147 401.152 286.593 408.023 290.144C414.857 293.729 421.619 297.384 428.198 301.387L428.088 301.596Z" fill="#ECAA15"/>
</g>
<path d="M409.266 302.505C405.684 301.008 402.066 299.616 398.447 298.223L393.002 296.169L387.519 294.185C380.21 291.574 372.827 289.103 365.444 286.631C350.642 281.793 335.73 277.372 320.708 273.229L315.08 271.663L309.415 270.166L303.75 268.669L298.085 267.242C290.519 265.293 282.954 263.517 275.351 261.742C260.147 258.226 244.87 255.093 229.556 252.169L218.043 250.011L206.494 248.027C204.557 247.714 202.656 247.366 200.719 247.052L194.944 246.147C191.07 245.556 187.233 244.929 183.358 244.337C175.61 243.258 167.898 242.075 160.15 241.169L154.339 240.438L151.415 240.09C150.428 239.951 149.478 239.847 148.491 239.742L136.832 238.524C134.895 238.315 132.958 238.106 130.984 237.932L125.136 237.445L113.441 236.47L101.745 235.704C97.8345 235.461 93.9604 235.182 90.0497 235.008L78.3176 234.451C74.4068 234.242 70.4962 234.207 66.5855 234.103L54.8533 233.825L43.1212 233.755C-19.4136 233.616 -82.0215 238.385 -143.496 249.176C-158.883 251.856 -174.161 254.885 -189.365 258.366C-204.569 261.812 -219.664 265.676 -234.612 270.027C-249.561 274.378 -264.399 279.078 -278.982 284.438L-284.428 286.457C-286.255 287.154 -288.046 287.85 -289.874 288.546C-291.701 289.242 -293.492 289.938 -295.283 290.669L-297.988 291.748L-300.692 292.862C-302.483 293.593 -304.274 294.359 -306.065 295.125L-308.733 296.274L-311.401 297.457C-314.946 299.059 -318.455 300.695 -321.89 302.435L-322 302.261C-315.165 298.606 -308.112 295.369 -300.985 292.271C-293.858 289.173 -286.657 286.248 -279.384 283.498C-277.557 282.802 -275.729 282.141 -273.902 281.479C-272.075 280.818 -270.247 280.122 -268.42 279.495C-264.728 278.207 -261.073 276.885 -257.382 275.666L-251.827 273.821C-249.963 273.229 -248.099 272.638 -246.271 272.046L-240.679 270.271L-235.087 268.6C-205.19 259.723 -174.709 252.587 -143.898 247.192C-128.511 244.442 -113.015 242.214 -97.4815 240.264L-85.8225 238.907C-83.8854 238.663 -81.9483 238.489 -79.9747 238.28L-74.1269 237.688L-68.2791 237.097L-65.3552 236.818L-62.4314 236.575L-50.7358 235.635C-46.8251 235.287 -42.9144 235.078 -39.0036 234.834L-27.2716 234.103L-15.5394 233.581L-9.65508 233.337C-8.66826 233.302 -7.718 233.233 -6.73119 233.233L-3.8073 233.163L7.92485 232.885L13.8092 232.745L19.6935 232.711L31.4256 232.676H34.3495C35.3363 232.676 36.3231 232.711 37.2734 232.711L43.1577 232.815L54.8899 232.989L66.622 233.372C74.4434 233.581 82.2648 234.033 90.0862 234.416C93.9969 234.59 97.9076 234.869 101.782 235.147L113.477 235.948L125.173 236.923L131.021 237.41C132.958 237.584 134.895 237.793 136.869 237.967L148.528 239.116C152.402 239.499 156.312 239.986 160.187 240.438C167.971 241.274 175.72 242.353 183.468 243.328C184.455 243.432 185.405 243.571 186.355 243.711L189.243 244.128L195.054 244.964L200.865 245.799C202.802 246.078 204.739 246.426 206.64 246.704L218.299 248.584L229.848 250.638C260.622 256.242 291.067 263.343 321.11 271.802C336.132 276.049 351.007 280.679 365.773 285.691C373.156 288.198 380.465 290.809 387.739 293.559C395.012 296.309 402.248 299.163 409.339 302.296L409.266 302.505Z" fill="#FFA800"/>
</svg>
