<svg width="40" height="40" viewBox="0 0 40 40" fill="none" xmlns="http://www.w3.org/2000/svg">
    <path d="M19.9997 36.6673C29.2044 36.6673 36.6663 29.2054 36.6663 20.0007C36.6663 10.7959 29.2044 3.33398 19.9997 3.33398C10.7949 3.33398 3.33301 10.7959 3.33301 20.0007C3.33301 29.2054 10.7949 36.6673 19.9997 36.6673Z" stroke="#00BABA" stroke-width="3" stroke-linecap="round" stroke-linejoin="round"/>
    <path d="M15.1501 15C15.542 13.8861 16.3154 12.9468 17.3334 12.3485C18.3514 11.7502 19.5483 11.5315 20.7121 11.7312C21.8759 11.9308 22.9315 12.5358 23.6919 13.4392C24.4524 14.3425 24.8686 15.4858 24.8668 16.6666C24.8668 20 19.8668 21.6666 19.8668 21.6666" stroke="#344456" stroke-width="3" stroke-linecap="round" stroke-linejoin="round"/>
    <path d="M20 28.334H20.0167" stroke="#344456" stroke-width="3" stroke-linecap="round" stroke-linejoin="round"/>
</svg>
