<svg width="32" height="32" viewBox="0 0 32 32" fill="none" xmlns="http://www.w3.org/2000/svg">
<path d="M19.5573 6.17033L19.605 6.26644L27.6048 22.2657C27.8577 22.79 27.9997 23.3784 27.9997 24.0001C27.9997 26.2094 26.209 28 23.9997 28C22.4805 28 21.1596 27.1536 20.4825 25.9067L20.4739 25.8903C20.4371 25.8232 20.4037 25.7552 20.3717 25.6859L20.3708 25.6838L12.4632 9.86979L12.4593 9.862C12.4368 9.82001 12.4147 9.77714 12.3944 9.73385L12.3866 9.7174C12.1385 9.19701 11.9995 8.61514 11.9995 8.00036C11.9995 6.46646 12.8624 5.13473 14.1287 4.46411C14.1824 4.4351 14.2365 4.40783 14.2911 4.38315L14.2967 4.38012C14.8132 4.13681 15.3903 4 15.9999 4C17.5498 3.99957 18.8936 4.88146 19.5573 6.17033Z" fill="#00BABA"/>
<path d="M11.9999 23.9994C11.9999 26.2087 10.2088 27.9994 7.99993 27.9994C5.79064 27.9994 4 26.2087 4 23.9994C4 21.7902 5.79064 19.9995 7.99993 19.9995C10.2088 19.9995 11.9999 21.7906 11.9999 23.9994Z" fill="#00BABA"/>
</svg>
